<svg width="92" height="92" viewBox="0 0 92 92" fill="none" xmlns="http://www.w3.org/2000/svg">
<g clip-path="url(#clip0_1830_6166)">
<path d="M43.3499 55.4773V58.7874H37.8142C30.8286 58.7874 30.0697 54.3891 31.5447 50.7793C31.3855 51.2572 31.3312 51.763 31.3854 52.2632C31.4396 52.7633 31.6011 53.2464 31.8592 53.6805C32.1767 54.2294 32.6369 54.6851 33.1926 55.0009C33.7482 55.3167 34.3792 55.4811 35.0208 55.4773H43.3499Z" fill="url(#paint0_linear_1830_6166)"/>
<path d="M37.8142 58.7878H35.0207C29.6233 58.7878 26.2497 53.0346 28.9488 48.4331L30.4253 45.915L28.8738 45.0555C28.8079 45.0191 28.7528 44.9665 28.7139 44.9028C28.675 44.839 28.6536 44.7664 28.6519 44.6921C28.6501 44.6178 28.6681 44.5443 28.7039 44.4789C28.7398 44.4135 28.7924 44.3584 28.8564 44.319L35.1441 40.4555C35.21 40.4151 35.2856 40.3927 35.3632 40.3908C35.4408 40.3888 35.5175 40.4073 35.5854 40.4444C35.6532 40.4814 35.7098 40.5357 35.7492 40.6015C35.7886 40.6673 35.8094 40.7424 35.8094 40.8188V48.1631C35.8094 48.2379 35.7896 48.3114 35.7518 48.3763C35.7139 48.4411 35.6595 48.4951 35.5939 48.5328C35.5284 48.5705 35.4539 48.5906 35.3779 48.5912C35.302 48.5917 35.2272 48.5727 35.1611 48.5359L33.3551 47.5355L31.8596 50.0858C31.7306 50.305 31.6252 50.5369 31.5451 50.7777C30.0725 54.3896 30.8298 58.7878 37.8142 58.7878Z" fill="url(#paint1_linear_1830_6166)"/>
<path d="M38.1843 39.2005L35.2739 37.5427L38.046 32.8264C41.5447 26.8715 45.7913 28.4293 48.2259 31.4941C47.8853 31.1192 47.4679 30.8197 47.0011 30.6155C46.5343 30.4112 46.0288 30.3068 45.5179 30.3091C44.8763 30.3047 44.2452 30.4686 43.6892 30.784C43.1333 31.0994 42.6727 31.5548 42.3547 32.1035L38.1843 39.2005Z" fill="url(#paint2_linear_1830_6166)"/>
<path d="M55.4993 39.7321C55.5019 39.8085 55.4837 39.8841 55.4466 39.9512C55.4094 40.0183 55.3548 40.0744 55.2882 40.1136C55.2217 40.1529 55.1457 40.174 55.0681 40.1746C54.9905 40.1752 54.9141 40.1554 54.847 40.1172L48.3891 36.4375C48.3235 36.4 48.2689 36.3462 48.2309 36.2815C48.1929 36.2169 48.1727 36.1435 48.1723 36.0688C48.172 35.9941 48.1916 35.9205 48.229 35.8555C48.2665 35.7906 48.3206 35.7363 48.3859 35.6983L50.1705 34.6602L48.6786 32.1087C48.5505 31.8889 48.3995 31.6828 48.2282 31.4937C45.7932 28.4286 41.547 26.8727 38.0483 32.8256L39.4475 30.4437C42.149 25.8445 48.8976 25.8505 51.5914 30.4556L53.0656 32.9753L54.5978 32.0833C54.6628 32.0454 54.7367 32.0248 54.8122 32.0235C54.8877 32.0223 54.9623 32.0405 55.0285 32.0763C55.0947 32.1121 55.1503 32.1642 55.1898 32.2276C55.2293 32.291 55.2514 32.3634 55.2538 32.4378L55.4993 39.7321Z" fill="url(#paint3_linear_1830_6166)"/>
<path d="M55.0867 43.0432L58.0188 41.4238L60.7264 46.1762C64.144 52.1748 60.6195 54.9779 56.7003 55.4777C57.2015 55.3804 57.676 55.1795 58.0925 54.8882C58.509 54.597 58.858 54.222 59.1164 53.7882C59.4471 53.2469 59.6256 52.6287 59.6335 51.9971C59.6413 51.3655 59.4783 50.7432 59.1611 50.1942L55.0867 43.0432Z" fill="url(#paint4_linear_1830_6166)"/>
<path d="M60.7263 46.1758L62.0932 48.5744C64.7339 53.2093 61.2868 58.9208 55.8914 58.8545L52.9383 58.8184L52.9347 60.5719C52.9348 60.6464 52.9152 60.7197 52.8777 60.7845C52.8402 60.8492 52.7862 60.9032 52.7211 60.9411C52.6559 60.979 52.5818 60.9995 52.5061 61.0005C52.4304 61.0016 52.3558 60.9832 52.2895 60.9471L45.7942 57.4357C45.7261 57.399 45.6692 57.345 45.6295 57.2794C45.5897 57.2138 45.5685 57.1389 45.5681 57.0625C45.5677 56.9861 45.5881 56.9109 45.6271 56.8449C45.6662 56.7789 45.7225 56.7243 45.7902 56.6869L52.298 53.093C52.3642 53.0569 52.4387 53.0385 52.5144 53.0395C52.59 53.0405 52.664 53.0609 52.7292 53.0987C52.7943 53.1365 52.8483 53.1904 52.8859 53.2551C52.9234 53.3197 52.9431 53.3929 52.9431 53.4673L52.9407 55.5075L55.9313 55.544C56.1884 55.5472 56.4451 55.5243 56.6974 55.4757C60.6195 54.9775 64.144 52.1743 60.7263 46.1758Z" fill="url(#paint5_linear_1830_6166)"/>
</g>
<g filter="url(#filter0_d_1830_6166)">
<rect x="11" y="7" width="70" height="70" rx="15" fill="#3056D3"/>
</g>
<g clip-path="url(#clip1_1830_6166)">
<path fill-rule="evenodd" clip-rule="evenodd" d="M59.9 27H33C31.9 27 31 27.9 31 28.8V55.8C31 56.8 31.9 57.6 33 57.6H60C61 57.6 62 56.7 62 55.8V28.8C61.9 27.9 60.9 27 59.9 27ZM50.2 28.8L52.1 32.7H48.2L46.3 28.8H50.2ZM42.6 28.8L44.5 32.7H40.6L38.7 28.8H42.6ZM33 28.8H34.8L36.7 32.7H33V28.8ZM59.9 55.9H33V34.7H60V55.9H59.9ZM59.9 32.7H56L54.1 28.8H58L59.9 30.8V32.7ZM52.4 44.4C53.4 44.9 53.4 45.7 52.4 46.2L42.3 51.2C41.3 51.7 40.6 51.2 40.6 50.1V40.5C40.6 39.4 41.3 38.9 42.3 39.4L52.4 44.4Z" fill="white"/>
</g>
<defs>
<filter id="filter0_d_1830_6166" x="0" y="0" width="92" height="92" filterUnits="userSpaceOnUse" color-interpolation-filters="sRGB">
<feFlood flood-opacity="0" result="BackgroundImageFix"/>
<feColorMatrix in="SourceAlpha" type="matrix" values="0 0 0 0 0 0 0 0 0 0 0 0 0 0 0 0 0 0 127 0" result="hardAlpha"/>
<feOffset dy="4"/>
<feGaussianBlur stdDeviation="5.5"/>
<feColorMatrix type="matrix" values="0 0 0 0 0 0 0 0 0 0 0 0 0 0 0 0 0 0 0.06 0"/>
<feBlend mode="normal" in2="BackgroundImageFix" result="effect1_dropShadow_1830_6166"/>
<feBlend mode="normal" in="SourceGraphic" in2="effect1_dropShadow_1830_6166" result="shape"/>
</filter>
<linearGradient id="paint0_linear_1830_6166" x1="30.9181" y1="54.7834" x2="43.3499" y2="54.7834" gradientUnits="userSpaceOnUse">
<stop stop-color="white"/>
<stop offset="1" stop-color="white"/>
</linearGradient>
<linearGradient id="paint1_linear_1830_6166" x1="28" y1="49.5887" x2="37.8154" y2="49.5887" gradientUnits="userSpaceOnUse">
<stop stop-color="white"/>
<stop offset="1" stop-color="white"/>
</linearGradient>
<linearGradient id="paint2_linear_1830_6166" x1="45.0194" y1="28.9443" x2="38.9361" y2="39.6201" gradientUnits="userSpaceOnUse">
<stop stop-color="white"/>
<stop offset="1" stop-color="white"/>
</linearGradient>
<linearGradient id="paint3_linear_1830_6166" x1="51.0495" y1="29.0685" x2="46.2468" y2="37.4979" gradientUnits="userSpaceOnUse">
<stop stop-color="white"/>
<stop offset="1" stop-color="white"/>
</linearGradient>
<linearGradient id="paint4_linear_1830_6166" x1="60.5555" y1="54.0566" x2="54.6161" y2="43.3026" gradientUnits="userSpaceOnUse">
<stop stop-color="white"/>
<stop offset="1" stop-color="white"/>
</linearGradient>
<linearGradient id="paint5_linear_1830_6166" x1="57.3811" y1="59.1035" x2="52.6918" y2="50.6128" gradientUnits="userSpaceOnUse">
<stop stop-color="white"/>
<stop offset="1" stop-color="white"/>
</linearGradient>
<clipPath id="clip0_1830_6166">
<rect width="35" height="34" fill="white" transform="translate(28 27)"/>
</clipPath>
<clipPath id="clip1_1830_6166">
<rect width="30.9" height="30.7" fill="white" transform="translate(31 27)"/>
</clipPath>
</defs>
</svg>
