<svg width="92" height="92" viewBox="0 0 92 92" fill="none" xmlns="http://www.w3.org/2000/svg">
<g filter="url(#filter0_d_1830_6159)">
<rect x="11" y="7" width="70" height="70" rx="15" fill="#3056D3"/>
</g>
<g clip-path="url(#clip0_1830_6159)">
<path d="M37.7216 49.0072V46.8086C37.7056 47.0799 37.5824 47.3337 37.3791 47.5144C37.1757 47.6952 36.9089 47.788 36.6371 47.7726H31.6209C31.5032 47.7811 31.3852 47.7618 31.2764 47.7162V49.0241C31.277 49.2309 31.3192 49.4354 31.4005 49.6255C31.4818 49.8156 31.6005 49.9876 31.7495 50.1311C31.8986 50.2746 32.075 50.3868 32.2684 50.461C32.4617 50.5352 32.668 50.57 32.875 50.5632H36.1795C36.3852 50.5696 36.59 50.5336 36.7811 50.4574C36.9722 50.3812 37.1455 50.2666 37.2903 50.1206C37.435 49.9745 37.548 49.8003 37.6222 49.6088C37.6964 49.4172 37.7303 49.2124 37.7216 49.0072Z" fill="#E9FDFF" stroke="white" stroke-miterlimit="10"/>
<path d="M35.4398 51.291H33.6152L34.5303 53.5629L35.4398 51.291Z" fill="#E9FDFF" stroke="white" stroke-miterlimit="10"/>
<path d="M36.5809 51.2852H36.1798L34.8693 54.6677C34.8403 54.7341 34.7925 54.7906 34.7318 54.8303C34.6711 54.8699 34.6001 54.8911 34.5275 54.8911C34.455 54.8911 34.384 54.8699 34.3233 54.8303C34.2626 54.7906 34.2148 54.7341 34.1858 54.6677L32.8753 51.2852H32.4742C32.137 51.2837 31.8029 51.3489 31.491 51.477C31.1792 51.6051 30.8959 51.7935 30.6574 52.0315C30.419 52.2695 30.2302 52.5522 30.1018 52.8634C29.9735 53.1746 29.9082 53.5081 29.9097 53.8446V56.9565H39.1454V53.8221C39.1323 53.1495 38.8571 52.5084 38.3784 52.0348C37.8996 51.5613 37.2549 51.2924 36.5809 51.2852Z" fill="#E9FDFF" stroke="white" stroke-miterlimit="10"/>
<path d="M38.8064 44.1758H31.6776C31.4516 44.1758 31.333 44.2885 31.333 44.4013V46.8085C31.333 46.9213 31.5081 47.034 31.6776 47.034H36.6937C36.9253 47.034 37.0383 46.9213 37.0383 46.8085C37.0455 46.6737 37.0793 46.5417 37.1378 46.4199C37.1962 46.2982 37.2781 46.1891 37.3789 46.099C37.4797 46.009 37.5973 45.9396 37.7249 45.895C37.8526 45.8503 37.9878 45.8313 38.1229 45.8389H38.8064C39.0324 45.8389 39.1453 45.7261 39.1453 45.6134V44.4182C39.1453 44.2885 39.0324 44.1758 38.8064 44.1758Z" fill="#E9FDFF" stroke="white" stroke-miterlimit="10"/>
<path d="M58.5883 30.003C57.1536 28.341 55.4008 26.9817 53.4326 26.0049C51.4644 25.0281 49.3206 24.4535 47.1269 24.3148C42.7031 24.012 38.3383 25.4647 34.9821 28.3569C33.3179 29.7884 31.9565 31.537 30.9779 33.5001C29.9992 35.4633 29.4228 37.6016 29.2824 39.7898C29.2734 39.8409 29.2754 39.8934 29.2879 39.9437C29.3005 39.9941 29.3234 40.0413 29.3554 40.0822C29.3873 40.1232 29.4274 40.1571 29.4732 40.1816C29.519 40.2062 29.5695 40.2209 29.6213 40.2249C29.6732 40.2288 29.7252 40.2219 29.7743 40.2046C29.8233 40.1872 29.8681 40.1598 29.9059 40.1242C29.9437 40.0885 29.9735 40.0454 29.9936 39.9975C30.0137 39.9496 30.0235 39.8981 30.0224 39.8462C30.2444 36.6879 31.3995 33.6662 33.3419 31.1631C35.2843 28.6599 37.9268 26.7877 40.9351 25.7831C43.9435 24.7785 47.1828 24.6865 50.2435 25.519C53.3042 26.3514 56.049 28.0707 58.1308 30.4597C59.5309 32.0318 60.5968 33.8711 61.2639 35.8663C61.9309 37.8616 62.1853 39.9712 62.0115 42.0674C61.8667 44.1637 61.3092 46.211 60.371 48.0922C59.4327 49.9734 58.1321 51.6515 56.5436 53.0307C54.955 54.4098 53.1095 55.4629 51.1128 56.1297C49.1161 56.7965 47.0073 57.0639 44.9069 56.9166C44.8081 56.9092 44.7103 56.9412 44.6351 57.0057C44.5598 57.0702 44.5134 57.1619 44.5059 57.2605C44.4984 57.3592 44.5305 57.4568 44.5951 57.5319C44.6598 57.607 44.7516 57.6533 44.8505 57.6608C45.2459 57.6608 45.6469 57.7172 46.048 57.7172C50.2772 57.7087 54.3461 56.101 57.4351 53.218C60.524 50.335 62.4035 46.3909 62.6949 42.1801C62.9571 37.7436 61.485 33.3785 58.5883 30.003Z" fill="#E9FDFF" stroke="white" stroke-miterlimit="10"/>
<path d="M45.9295 45.1969C46.8993 45.1969 47.8472 44.9099 48.6535 44.3722C49.4598 43.8346 50.0884 43.0703 50.4595 42.1762C50.8306 41.282 50.9276 40.2981 50.7385 39.3489C50.5493 38.3997 50.0823 37.5278 49.3966 36.8434C48.7109 36.1591 47.8372 35.693 46.8861 35.5042C45.935 35.3154 44.9491 35.4123 44.0531 35.7827C43.1572 36.153 42.3915 36.7802 41.8527 37.5849C41.314 38.3896 41.0264 39.3357 41.0264 40.3035C41.0256 40.9464 41.152 41.583 41.3981 42.177C41.6442 42.7711 42.0054 43.3108 42.4608 43.7653C42.9163 44.2199 43.4571 44.5803 44.0523 44.826C44.6475 45.0716 45.2854 45.1977 45.9295 45.1969Z" fill="#E9FDFF" stroke="white" stroke-miterlimit="10"/>
<path d="M47.8103 51.6277V48.7244C48.808 48.5078 49.7625 48.1267 50.6347 47.5969L52.6852 49.6433C52.7582 49.7014 52.8488 49.7331 52.9422 49.7331C53.0356 49.7331 53.1263 49.7014 53.1993 49.6433L55.3684 47.4842C55.4035 47.4573 55.432 47.4228 55.4516 47.3832C55.4712 47.3436 55.4814 47.3 55.4814 47.2559C55.4814 47.2117 55.4712 47.1681 55.4516 47.1285C55.432 47.0889 55.4035 47.0544 55.3684 47.0275L53.3122 44.9811C53.8763 44.1379 54.2609 43.1881 54.442 42.1905H57.3511C57.4398 42.1853 57.5236 42.1481 57.587 42.0859C57.6504 42.0237 57.689 41.9407 57.6957 41.8523V38.8362C57.6891 38.7471 57.6508 38.6634 57.5875 38.6003C57.5242 38.5371 57.4403 38.4988 57.3511 38.4923H54.442C54.2208 37.5085 53.8392 36.5676 53.3122 35.7073L55.3684 33.6553C55.4279 33.5931 55.4672 33.5145 55.4813 33.4298C55.4663 33.3436 55.4272 33.2635 55.3684 33.1986L53.1993 31.0395C53.1251 30.9841 53.0349 30.9542 52.9422 30.9542C52.8496 30.9542 52.7594 30.9841 52.6852 31.0395L50.6347 33.0859C49.7807 32.5208 48.8193 32.137 47.8103 31.9584V29.0607C47.8051 28.9721 47.7679 28.8885 47.7056 28.8252C47.6433 28.762 47.56 28.7235 47.4714 28.7168H44.4493C44.3601 28.7233 44.2762 28.7616 44.2129 28.8248C44.1497 28.8879 44.1112 28.9716 44.1047 29.0607V31.9584C43.1197 32.1816 42.1774 32.5623 41.3142 33.0859L39.2581 31.0395C39.1847 30.9846 39.0956 30.9549 39.0039 30.9549C38.9122 30.9549 38.823 30.9846 38.7497 31.0395L36.5241 33.0859C36.4642 33.15 36.4248 33.2305 36.4111 33.317C36.4252 33.4018 36.4646 33.4804 36.5241 33.5425L38.5746 35.589C38.0129 36.4334 37.6285 37.3827 37.4448 38.3795H34.5413C34.4517 38.3849 34.3672 38.4228 34.3037 38.4862C34.2402 38.5496 34.2021 38.634 34.1968 38.7234V41.6775C34.2021 41.767 34.2402 41.8513 34.3037 41.9147C34.3672 41.9781 34.4517 42.016 34.5413 42.0214H37.7329C37.816 42.0107 37.8923 41.9702 37.9476 41.9074C38.003 41.8446 38.0334 41.7639 38.0334 41.6803C38.0334 41.5967 38.003 41.516 37.9476 41.4532C37.8923 41.3904 37.816 41.3499 37.7329 41.3392H34.8803V39.118H37.7329C37.8151 39.1244 37.8964 39.0985 37.9597 39.0458C38.023 38.9932 38.0632 38.918 38.0718 38.8362C38.2857 37.7404 38.7117 36.6968 39.3258 35.7637C39.3746 35.6941 39.3959 35.6089 39.3854 35.5246C39.375 35.4403 39.3336 35.3628 39.2694 35.3071L37.3318 33.317L38.9869 31.6652L40.981 33.6553C41.0443 33.7065 41.1207 33.739 41.2016 33.7489C41.2825 33.7589 41.3646 33.746 41.4385 33.7116C42.361 33.0756 43.4118 32.6484 44.5171 32.4601C44.5954 32.4437 44.6659 32.4013 44.7171 32.3399C44.7684 32.2786 44.7975 32.2017 44.7995 32.1219V29.2749H47.1382V32.1219C47.1333 32.2044 47.1606 32.2856 47.2142 32.3486C47.2679 32.4116 47.3438 32.4516 47.4262 32.4601C48.5238 32.6745 49.5694 33.0996 50.5048 33.7116C50.6178 33.83 50.8437 33.768 50.9623 33.6553L52.9564 31.6652L54.6115 33.317L52.6118 35.3071C52.5604 35.3703 52.5279 35.4466 52.5179 35.5273C52.5079 35.6081 52.5209 35.69 52.5553 35.7637C53.1949 36.6832 53.6231 37.7323 53.8093 38.8362C53.827 38.9148 53.8705 38.9853 53.933 39.0364C53.9954 39.0875 54.0732 39.1162 54.1539 39.118H56.9783V41.452H54.1539C54.0702 41.4457 53.9875 41.4722 53.9231 41.5259C53.8587 41.5796 53.8179 41.6562 53.8093 41.7395C53.5958 42.8354 53.1699 43.8791 52.5553 44.812C52.5093 44.8815 52.4897 44.9652 52.5001 45.0479C52.5104 45.1306 52.55 45.2069 52.6118 45.263L54.6115 47.2587L52.9564 48.9048L50.9623 46.9148C50.8987 46.8641 50.8223 46.832 50.7415 46.8221C50.6608 46.8121 50.5788 46.8247 50.5048 46.8584C49.583 47.4959 48.5319 47.9232 47.4262 48.1099C47.3468 48.1273 47.2754 48.1706 47.2233 48.2328C47.1712 48.295 47.1413 48.3728 47.1382 48.4538V51.2726H44.7995V48.4538C44.8074 48.3709 44.7822 48.2883 44.7293 48.2238C44.6764 48.1594 44.6001 48.1185 44.5171 48.1099C43.4184 47.899 42.3722 47.4737 41.4385 46.8584C41.3974 46.8286 41.3506 46.8074 41.301 46.7963C41.2514 46.7852 41.2001 46.7843 41.1501 46.7937C41.1002 46.8031 41.0527 46.8226 41.0105 46.851C40.9684 46.8794 40.9326 46.9161 40.9052 46.9588C40.8778 47.0016 40.8594 47.0494 40.8513 47.0995C40.8431 47.1496 40.8453 47.2008 40.8577 47.25C40.8701 47.2992 40.8924 47.3454 40.9233 47.3856C40.9542 47.4259 40.9931 47.4594 41.0374 47.4842C41.9632 48.1256 43.011 48.5708 44.116 48.7921V51.6954C44.1227 51.7839 44.1613 51.8669 44.2247 51.9291C44.288 51.9913 44.3718 52.0284 44.4606 52.0337H47.4827C47.5791 52.021 47.6669 51.9717 47.7279 51.8961C47.7889 51.8206 47.8184 51.7245 47.8103 51.6277Z" fill="#E9FDFF" stroke="white" stroke-miterlimit="10"/>
</g>
<defs>
<filter id="filter0_d_1830_6159" x="0" y="0" width="92" height="92" filterUnits="userSpaceOnUse" color-interpolation-filters="sRGB">
<feFlood flood-opacity="0" result="BackgroundImageFix"/>
<feColorMatrix in="SourceAlpha" type="matrix" values="0 0 0 0 0 0 0 0 0 0 0 0 0 0 0 0 0 0 127 0" result="hardAlpha"/>
<feOffset dy="4"/>
<feGaussianBlur stdDeviation="5.5"/>
<feColorMatrix type="matrix" values="0 0 0 0 0 0 0 0 0 0 0 0 0 0 0 0 0 0 0.06 0"/>
<feBlend mode="normal" in2="BackgroundImageFix" result="effect1_dropShadow_1830_6159"/>
<feBlend mode="normal" in="SourceGraphic" in2="effect1_dropShadow_1830_6159" result="shape"/>
</filter>
<clipPath id="clip0_1830_6159">
<rect width="34" height="34" fill="white" transform="translate(29 24)"/>
</clipPath>
</defs>
</svg>
