<svg width="92" height="92" viewBox="0 0 92 92" fill="none" xmlns="http://www.w3.org/2000/svg">
<g filter="url(#filter0_d_1855_7510)">
<rect x="11" y="7" width="70" height="70" rx="15" fill="#3056D3"/>
</g>
<g clip-path="url(#clip0_1855_7510)">
<path d="M41.567 61.0004C41.3603 61.0004 41.2054 60.9484 40.9987 60.8964C40.0689 60.5845 39.5524 59.5968 39.8623 58.6091L51.0199 24.248C51.3299 23.3123 52.3113 22.7924 53.2928 23.1043C54.2226 23.4163 54.7391 24.4039 54.4292 25.3916L43.2716 59.7528C43.0133 60.5325 42.2901 61.0004 41.567 61.0004Z" fill="white"/>
<path d="M35.8848 58.7657C35.5748 58.7657 35.3166 58.7137 35.0583 58.5578C33.5086 57.7261 32.4238 56.6344 31.7523 55.2308C30.9258 53.5154 30.8225 51.436 31.4424 49.1488C31.804 47.7972 32.1139 46.0297 31.2874 44.9381C30.4609 43.8464 28.8079 43.7945 28.8079 43.7945C27.7748 43.7945 27 43.0147 27 42.027C27 41.0393 27.7748 40.2596 28.7563 40.2076C28.8079 40.2076 30.5126 40.1556 31.2874 39.0639C32.0623 37.9723 31.804 36.2048 31.4424 34.8533C30.6675 32.1501 30.9258 29.8109 32.2172 27.9395C34.4901 24.6125 39.1391 24.1447 39.294 24.1447C40.2755 24.0407 41.1536 24.7685 41.257 25.7561C41.3603 26.7438 40.6371 27.6276 39.6556 27.6795C38.7775 27.7835 36.2464 28.3553 35.1616 29.9148C34.4901 30.9025 34.4384 32.1501 34.9033 33.7616C35.7815 36.8287 35.5232 39.3239 34.1801 41.1433C33.9735 41.4552 33.7152 41.7151 33.5086 41.923C33.7669 42.131 33.9735 42.3909 34.1801 42.7028C35.5232 44.5222 35.7815 47.0174 34.9033 50.0845C34.1801 52.5797 34.8 54.2432 36.7629 55.2828C37.6411 55.7507 37.951 56.8423 37.4861 57.7261C37.1245 58.4018 36.5563 58.7657 35.8848 58.7657Z" fill="white"/>
<path d="M53.551 59.8572C52.6212 59.8572 51.8464 59.1295 51.7947 58.1938C51.6914 57.2061 52.4146 56.3224 53.3961 56.2184C54.2742 56.1144 56.8053 55.5426 57.8901 53.9831C58.5616 52.9954 58.6133 51.7478 58.1484 50.1363C57.2702 47.0693 57.4769 44.5741 58.8716 42.7546C59.0782 42.4427 59.3365 42.1828 59.5431 41.9749C59.2848 41.767 59.0782 41.507 58.8716 41.1951C57.5285 39.3757 57.2702 36.8805 58.1484 33.8135C58.51 32.4619 58.8199 30.5385 57.1669 29.1869C56.3921 28.5631 56.2888 27.4195 56.9086 26.6397C57.5285 25.86 58.6649 25.756 59.4398 26.3798C61.1444 27.7834 62.849 30.3826 61.6093 34.8012C61.2477 36.1007 60.9378 37.9202 61.7643 39.0118C62.5908 40.1035 64.2437 40.1555 64.2954 40.1555C65.2769 40.1555 66.0517 40.9872 66.0517 41.9749C66.0517 42.9626 65.2769 43.7423 64.2954 43.7943C64.2437 43.7943 62.5908 43.8463 61.7643 44.938C60.9894 46.0296 61.2477 47.7971 61.6093 49.1486C62.3841 51.8518 62.1259 54.191 60.8345 56.0624C58.51 59.3894 53.9126 59.8572 53.706 59.8572C53.6543 59.8572 53.6027 59.8572 53.551 59.8572Z" fill="white"/>
</g>
<defs>
<filter id="filter0_d_1855_7510" x="0" y="0" width="92" height="92" filterUnits="userSpaceOnUse" color-interpolation-filters="sRGB">
<feFlood flood-opacity="0" result="BackgroundImageFix"/>
<feColorMatrix in="SourceAlpha" type="matrix" values="0 0 0 0 0 0 0 0 0 0 0 0 0 0 0 0 0 0 127 0" result="hardAlpha"/>
<feOffset dy="4"/>
<feGaussianBlur stdDeviation="5.5"/>
<feColorMatrix type="matrix" values="0 0 0 0 0 0 0 0 0 0 0 0 0 0 0 0 0 0 0.06 0"/>
<feBlend mode="normal" in2="BackgroundImageFix" result="effect1_dropShadow_1855_7510"/>
<feBlend mode="normal" in="SourceGraphic" in2="effect1_dropShadow_1855_7510" result="shape"/>
</filter>
<clipPath id="clip0_1855_7510">
<rect width="39" height="38" fill="white" transform="translate(27 23)"/>
</clipPath>
</defs>
</svg>
