<svg width="92" height="92" viewBox="0 0 92 92" fill="none" xmlns="http://www.w3.org/2000/svg">
<g filter="url(#filter0_d_1855_8080)">
<rect x="11" y="7" width="70" height="70" rx="15" fill="#3056D3"/>
</g>
<g clip-path="url(#clip0_1855_8080)">
<path d="M42.0076 55.1634H34.9707C33.9875 55.1634 33.1597 54.3817 33.1597 53.3395V31.5564C33.1597 30.5662 33.9358 29.7324 34.9707 29.7324H42.0076C42.9907 29.7324 43.8186 30.5141 43.8186 31.5564C43.8186 32.5986 43.0425 33.3803 42.0076 33.3803H36.7299V51.5676H42.0076C42.9907 51.5676 43.8186 52.3493 43.8186 53.3916C43.8186 54.4338 42.9907 55.1634 42.0076 55.1634Z" fill="white"/>
<path d="M56.0296 55.1634H48.9409C47.9578 55.1634 47.1299 54.3817 47.1299 53.3395C47.1299 52.2972 47.906 51.5155 48.9409 51.5155H54.2186V33.3282H48.9409C47.9578 33.3282 47.1299 32.5465 47.1299 31.5043C47.1299 30.462 47.9578 29.7324 48.9409 29.7324H55.9778C56.9609 29.7324 57.7888 30.5141 57.7888 31.5564V53.3395C57.7888 54.3296 57.0127 55.1634 56.0296 55.1634Z" fill="white"/>
<path d="M58.3579 61.0001C57.4266 61.0001 56.6505 60.3227 56.5987 59.3847C56.4952 58.3945 57.2196 57.5086 58.2027 57.4044C58.2545 57.4044 60.8416 57.0917 62.0317 55.3199C62.7561 54.2776 62.9113 52.7663 62.4456 50.8903C61.6177 47.5551 61.9282 44.9494 63.3252 43.0734C63.4804 42.8649 63.6357 42.6565 63.8426 42.5002C63.6874 42.3438 63.4804 42.1354 63.3252 41.9269C61.8764 40.0509 61.6177 37.4452 62.4456 34.11C62.9113 32.234 62.7561 30.7748 62.0317 29.6804C60.7898 27.9086 58.2027 27.5959 58.2027 27.5959C57.2196 27.4917 56.4952 26.6058 56.5987 25.6156C56.7022 24.6255 57.5818 23.8959 58.5649 24.0002C58.7201 24.0002 62.8078 24.4692 64.981 27.5959C66.3263 29.5762 66.6885 32.0255 65.9123 34.9959C65.3949 37.1325 65.4467 38.748 66.1193 39.6861C66.8437 40.6241 68.1373 40.6762 68.189 40.6762C69.1721 40.6762 69.9482 41.51 69.9482 42.5002C69.9482 43.4903 69.1721 44.272 68.189 44.3241C68.1373 44.3241 66.8437 44.3762 66.1193 45.3142C65.4467 46.2523 65.3432 47.8678 65.9123 50.0044C66.6367 52.9227 66.3263 55.4241 64.981 57.4044C62.8078 60.5311 58.7719 61.0001 58.5649 61.0001C58.5132 61.0001 58.4614 61.0001 58.3579 61.0001Z" fill="white"/>
<path d="M32.5903 61.0001C32.5385 61.0001 32.4868 61.0001 32.4351 61.0001C32.2798 61.0001 28.1922 60.5311 26.019 57.4044C24.6737 55.4241 24.3115 52.9748 25.0876 50.0044C25.6051 47.8678 25.5533 46.2523 24.8807 45.3142C24.1045 44.3762 22.811 44.3241 22.7592 44.3241C21.7761 44.3241 21 43.4903 21 42.5002C21 41.51 21.7761 40.7283 22.7592 40.6762C22.811 40.6762 24.1045 40.6241 24.8289 39.6861C25.5016 38.748 25.6051 37.1325 25.0359 34.9959C24.3115 32.0776 24.6737 29.5762 26.019 27.5959C28.1922 24.4692 32.2281 24.0002 32.4351 24.0002C33.4182 23.8959 34.2978 24.6255 34.4013 25.6156C34.5048 26.6058 33.7804 27.4917 32.7973 27.5959C32.7455 27.5959 30.1584 27.9086 28.9683 29.6804C28.2439 30.7227 28.0887 32.234 28.5544 34.11C29.3823 37.4452 29.0718 40.0509 27.6748 41.9269C27.5195 42.1354 27.3643 42.3438 27.1573 42.5002C27.3126 42.6565 27.5195 42.8649 27.6748 43.0734C29.1235 44.9494 29.3823 47.5551 28.5544 50.8903C28.0887 52.7663 28.2439 54.2255 28.9683 55.3199C30.2101 57.0917 32.7455 57.4044 32.7973 57.4044C33.7804 57.5086 34.5048 58.3945 34.4013 59.3847C34.2978 60.3227 33.5216 61.0001 32.5903 61.0001Z" fill="white"/>
<path d="M42.4733 49.6395C41.9559 49.6395 41.4902 49.4311 41.128 49.0142C40.4553 48.2846 40.5588 47.1381 41.2832 46.4607L45.7848 42.448L41.2832 38.4353C40.5588 37.7579 40.4553 36.6114 41.128 35.8818C41.8007 35.1522 42.939 35.048 43.6634 35.7255L49.6655 41.0931C50.0277 41.4579 50.2864 41.9269 50.2864 42.448C50.2864 42.9691 50.0794 43.4381 49.6655 43.8029L43.6634 49.2226C43.3529 49.4832 42.939 49.6395 42.4733 49.6395Z" fill="white"/>
</g>
<defs>
<filter id="filter0_d_1855_8080" x="0" y="0" width="92" height="92" filterUnits="userSpaceOnUse" color-interpolation-filters="sRGB">
<feFlood flood-opacity="0" result="BackgroundImageFix"/>
<feColorMatrix in="SourceAlpha" type="matrix" values="0 0 0 0 0 0 0 0 0 0 0 0 0 0 0 0 0 0 127 0" result="hardAlpha"/>
<feOffset dy="4"/>
<feGaussianBlur stdDeviation="5.5"/>
<feColorMatrix type="matrix" values="0 0 0 0 0 0 0 0 0 0 0 0 0 0 0 0 0 0 0.06 0"/>
<feBlend mode="normal" in2="BackgroundImageFix" result="effect1_dropShadow_1855_8080"/>
<feBlend mode="normal" in="SourceGraphic" in2="effect1_dropShadow_1855_8080" result="shape"/>
</filter>
<clipPath id="clip0_1855_8080">
<rect width="49" height="37" fill="white" transform="translate(21 24)"/>
</clipPath>
</defs>
</svg>
